<svg width="120" height="120" viewBox="0 0 120 120" fill="none" xmlns="http://www.w3.org/2000/svg">
  <defs>
    <linearGradient id="cubeGradient" x1="0%" y1="0%" x2="100%" y2="100%">
      <stop offset="0%" stop-color="#0f172a" />
      <stop offset="50%" stop-color="#1e3a8a" />
      <stop offset="100%" stop-color="#0c4a6e" />
    </linearGradient>
    <linearGradient id="nodeGradient" x1="0%" y1="0%" x2="100%" y2="100%">
      <stop offset="0%" stop-color="#38bdf8" />
      <stop offset="100%" stop-color="#22d3ee" />
    </linearGradient>
    <radialGradient id="glow" cx="50%" cy="50%" r="50%" fx="50%" fy="50%">
      <stop offset="0%" stop-color="#38bdf8" stop-opacity="0.8" />
      <stop offset="100%" stop-color="#0ea5e9" stop-opacity="0" />
    </radialGradient>
    <filter id="glowEffect" x="-50%" y="-50%" width="200%" height="200%">
      <feGaussianBlur in="SourceAlpha" stdDeviation="2" result="blur" />
      <feFlood flood-color="#38bdf8" flood-opacity="0.7" result="color" />
      <feComposite in="color" in2="blur" operator="in" result="glow" />
      <feMerge>
        <feMergeNode in="glow" />
        <feMergeNode in="SourceGraphic" />
      </feMerge>
    </filter>
  </defs>
  <!-- 背景 -->
  <rect width="120" height="120" fill="#0f172a" rx="20"/>
  <!-- 立方体结构整体再向上移动 -->
  <g transform="translate(50,32) scale(0.45)">
    <g stroke="#334155" stroke-width="2" fill="none">
      <polygon points="-100,0 0,-60 100,0 0,60" stroke-dasharray="4,2" />
      <line x1="-100" y1="0" x2="-50" y2="80" />
      <line x1="0" y1="-60" x2="50" y2="20" />
      <line x1="100" y1="0" x2="150" y2="80" />
      <line x1="0" y1="60" x2="50" y2="140" />
      <polygon points="-50,80 50,20 150,80 50,140" />
    </g>
    <g fill-opacity="0.18" stroke="none">
      <polygon points="-100,0 0,-60 100,0 0,60" fill="url(#cubeGradient)" />
      <polygon points="-100,0 0,-60 50,20 -50,80" fill="#1e40af" />
      <polygon points="100,0 0,-60 50,20 150,80" fill="#1d4ed8" />
      <polygon points="-50,80 50,20 150,80 50,140" fill="url(#cubeGradient)" />
    </g>
    <!-- 动感连接线 -->
    <g stroke="#22d3ee" stroke-width="3" stroke-dasharray="10,5" stroke-linecap="round">
      <line x1="-100" y1="0" x2="0" y2="-60">
        <animate attributeName="stroke-dashoffset" from="0" to="30" dur="2s" repeatCount="indefinite" />
      </line>
      <line x1="0" y1="-60" x2="100" y2="0">
        <animate attributeName="stroke-dashoffset" from="0" to="30" dur="2s" repeatCount="indefinite" />
      </line>
      <line x1="100" y1="0" x2="0" y2="60">
        <animate attributeName="stroke-dashoffset" from="0" to="30" dur="2s" repeatCount="indefinite" />
      </line>
      <line x1="0" y1="60" x2="-100" y2="0">
        <animate attributeName="stroke-dashoffset" from="0" to="30" dur="2s" repeatCount="indefinite" />
      </line>
    </g>
    <!-- 神经节点 -->
    <g filter="url(#glowEffect)">
      <circle cx="-100" cy="0" r="12" fill="url(#nodeGradient)" />
      <circle cx="0" cy="-60" r="12" fill="url(#nodeGradient)" />
      <circle cx="100" cy="0" r="12" fill="url(#nodeGradient)" />
      <circle cx="0" cy="60" r="12" fill="url(#nodeGradient)" />
      <circle cx="-50" cy="80" r="12" fill="url(#nodeGradient)" />
      <circle cx="50" cy="20" r="12" fill="url(#nodeGradient)" />
      <circle cx="150" cy="80" r="12" fill="url(#nodeGradient)" />
      <circle cx="50" cy="140" r="12" fill="url(#nodeGradient)" />
    </g>
  </g>
  <!-- 品牌字样下移 -->
  <text x="60" y="118" text-anchor="middle" font-family="'Segoe UI', 'Roboto', Arial, sans-serif" font-size="18" font-weight="bold" fill="#38bdf8">AICoreDirector</text>
</svg> 